<svg xmlns="http://www.w3.org/2000/svg" width="24" height="24" viewBox="0 0 24 24" fill="none">
<path d="M12 3C7.58 3 4 4.34 4 6V18C4 19.66 7.58 21 12 21C16.42 21 20 19.66 20 18V6C20 4.34 16.42 3 12 3ZM12 5C15.87 5 18 6.02 18 6.5C18 6.98 15.87 8 12 8C8.13 8 6 6.98 6 6.5C6 6.02 8.13 5 12 5ZM6 8.68C7.36 9.5 9.5 10 12 10C14.5 10 16.64 9.5 18 8.68V11.5C18 11.98 15.87 13 12 13C8.13 13 6 11.98 6 11.5V8.68ZM6 13.68C7.36 14.5 9.5 15 12 15C14.5 15 16.64 14.5 18 13.68V16.5C18 16.98 15.87 18 12 18C8.13 18 6 16.98 6 16.5V13.68Z" fill="currentColor"/>
</svg>
