<svg xmlns="http://www.w3.org/2000/svg" width="24" height="24" viewBox="0 0 24 24" fill="none">
<path fill-rule="evenodd" clip-rule="evenodd" d="M12 4C7.58172 4 4 7.58172 4 12C4 16.4183 7.58172 20 12 20C16.4183 20 20 16.4183 20 12C20 7.58172 16.4183 4 12 4ZM6 12C6 8.68629 8.68629 6 12 6C15.3137 6 18 8.68629 18 12C18 15.3137 15.3137 18 12 18C8.68629 18 6 15.3137 6 12Z" fill="currentColor"/>
<path d="M12 6.75C10.2051 6.75 8.75 8.20507 8.75 10H10.75C10.75 9.30964 11.3096 8.75 12 8.75C12.6904 8.75 13.25 9.30964 13.25 10C13.25 10.5 12.9 10.85 12.35 11.3C11.7 11.8 11 12.4 11 13.5V14H13V13.6C13 13.2 13.35 12.85 13.9 12.4C14.55 11.9 15.25 11.3 15.25 10C15.25 8.20507 13.7949 6.75 12 6.75Z" fill="currentColor"/>
<circle cx="12" cy="16.25" r="1.15" fill="currentColor"/>
</svg>
